<?xml version="1.0" encoding="UTF-8" standalone="no"?>
<!-- Created with Inkscape (http://www.inkscape.org/) -->

<svg
   xmlns:dc="http://purl.org/dc/elements/1.1/"
   xmlns:cc="http://creativecommons.org/ns#"
   xmlns:rdf="http://www.w3.org/1999/02/22-rdf-syntax-ns#"
   xmlns:svg="http://www.w3.org/2000/svg"
   xmlns="http://www.w3.org/2000/svg"
   xmlns:sodipodi="http://sodipodi.sourceforge.net/DTD/sodipodi-0.dtd"
   xmlns:inkscape="http://www.inkscape.org/namespaces/inkscape"
   width="84mm"
   height="64mm"
   viewBox="0 0 297.6378 226.77165"
   id="svg4728"
   version="1.1"
   inkscape:version="0.91 r13725"
   sodipodi:docname="searchOptions.svg">
  <defs
     id="defs4730" />
  <sodipodi:namedview
     id="base"
     pagecolor="#ffffff"
     bordercolor="#666666"
     borderopacity="1.0"
     inkscape:pageopacity="0.0"
     inkscape:pageshadow="2"
     inkscape:zoom="2.9653554"
     inkscape:cx="172.47542"
     inkscape:cy="107.64819"
     inkscape:document-units="px"
     inkscape:current-layer="layer1"
     showgrid="false"
     inkscape:window-width="1920"
     inkscape:window-height="1148"
     inkscape:window-x="1392"
     inkscape:window-y="-8"
     inkscape:window-maximized="1" />
  <metadata
     id="metadata4733">
    <rdf:RDF>
      <cc:Work
         rdf:about="">
        <dc:format>image/svg+xml</dc:format>
        <dc:type
           rdf:resource="http://purl.org/dc/dcmitype/StillImage" />
        <dc:title></dc:title>
      </cc:Work>
    </rdf:RDF>
  </metadata>
  <g
     inkscape:label="Ebene 1"
     inkscape:groupmode="layer"
     id="layer1"
     transform="translate(0,-825.59055)">
    <path
       sodipodi:type="star"
       style="color:#000000;text-decoration:none;text-decoration-line:none;text-decoration-style:solid;text-decoration-color:#000000;clip-rule:nonzero;display:inline;overflow:visible;visibility:visible;opacity:1;isolation:auto;mix-blend-mode:normal;color-interpolation:sRGB;color-interpolation-filters:linearRGB;solid-color:#000000;solid-opacity:1;fill:#ff2a2a;fill-opacity:0.65361442;fill-rule:nonzero;stroke:none;stroke-width:0.45674413;stroke-linecap:butt;stroke-linejoin:miter;stroke-miterlimit:4;stroke-dasharray:none;stroke-dashoffset:0.18269765;stroke-opacity:1;color-rendering:auto;image-rendering:auto;shape-rendering:auto;text-rendering:auto;enable-background:accumulate"
       id="path5789"
       sodipodi:sides="5"
       sodipodi:cx="72.841187"
       sodipodi:cy="907.01709"
       sodipodi:r1="19.316408"
       sodipodi:r2="7.3469186"
       sodipodi:arg1="0.79774322"
       sodipodi:arg2="1.4260617"
       inkscape:flatsided="false"
       inkscape:rounded="0"
       inkscape:randomized="0"
       d="m 86.330295,920.84343 -12.429464,-6.55624 -10.040908,9.83138 2.394435,-13.84711 -12.453006,-6.51141 13.909306,-2.00175 2.344527,-13.85565 6.201989,12.60996 13.902004,-2.05185 -10.076266,9.79513 z"
       inkscape:transform-center-x="0.91696277"
       inkscape:transform-center-y="0.29725626"
       transform="matrix(0.36000816,0,0,0.29231931,34.432426,628.35156)" />
    <path
       sodipodi:type="star"
       style="color:#000000;text-decoration:none;text-decoration-line:none;text-decoration-style:solid;text-decoration-color:#000000;clip-rule:nonzero;display:inline;overflow:visible;visibility:visible;opacity:1;isolation:auto;mix-blend-mode:normal;color-interpolation:sRGB;color-interpolation-filters:linearRGB;solid-color:#000000;solid-opacity:1;fill:#ff2a2a;fill-opacity:0.65361442;fill-rule:nonzero;stroke:none;stroke-width:0.45674413;stroke-linecap:butt;stroke-linejoin:miter;stroke-miterlimit:4;stroke-dasharray:none;stroke-dashoffset:0.18269765;stroke-opacity:1;color-rendering:auto;image-rendering:auto;shape-rendering:auto;text-rendering:auto;enable-background:accumulate"
       id="path5789-1"
       sodipodi:sides="5"
       sodipodi:cx="154.63676"
       sodipodi:cy="936.68793"
       sodipodi:r1="19.316408"
       sodipodi:r2="7.3469186"
       sodipodi:arg1="0.79774322"
       sodipodi:arg2="1.4260617"
       inkscape:flatsided="false"
       inkscape:rounded="0"
       inkscape:randomized="0"
       d="m 168.12587,950.51426 -12.42946,-6.55623 -10.04091,9.83137 2.39444,-13.84711 -12.45301,-6.5114 13.90931,-2.00175 2.34452,-13.85565 6.20199,12.60996 13.90201,-2.05185 -10.07627,9.79513 z"
       inkscape:transform-center-x="1.6257007"
       inkscape:transform-center-y="0.51503209"
       transform="matrix(0.63826548,0,0,0.50648583,62.201971,470.70858)" />
    <path
       sodipodi:type="star"
       style="color:#000000;text-decoration:none;text-decoration-line:none;text-decoration-style:solid;text-decoration-color:#000000;clip-rule:nonzero;display:inline;overflow:visible;visibility:visible;opacity:1;isolation:auto;mix-blend-mode:normal;color-interpolation:sRGB;color-interpolation-filters:linearRGB;solid-color:#000000;solid-opacity:1;fill:#0000ff;fill-opacity:0.65361442;fill-rule:nonzero;stroke:none;stroke-width:0.45674413;stroke-linecap:butt;stroke-linejoin:miter;stroke-miterlimit:4;stroke-dasharray:none;stroke-dashoffset:0.18269765;stroke-opacity:1;color-rendering:auto;image-rendering:auto;shape-rendering:auto;text-rendering:auto;enable-background:accumulate"
       id="path5789-3"
       sodipodi:sides="5"
       sodipodi:cx="210.27933"
       sodipodi:cy="869.91681"
       sodipodi:r1="19.316408"
       sodipodi:r2="7.3469186"
       sodipodi:arg1="0.79774322"
       sodipodi:arg2="1.4260617"
       inkscape:flatsided="false"
       inkscape:rounded="0"
       inkscape:randomized="0"
       d="m 223.76844,883.74315 -12.42947,-6.55624 -10.04091,9.83138 2.39444,-13.84711 -12.45301,-6.51141 13.90931,-2.00175 2.34453,-13.85565 6.20198,12.60996 13.90201,-2.05185 -10.07627,9.79513 z"
       inkscape:transform-center-x="1.1768393"
       inkscape:transform-center-y="0.46770409"
       transform="matrix(0.46203584,0,0,0.4599279,102.87999,459.49463)" />
    <g
       id="g5586"
       transform="matrix(0.80012704,0,0,0.74665482,-52.14021,216.2273)">
      <path
         style="fill:#f6ffd5;fill-opacity:0.70481926"
         d="m 340.02526,1103.9531 c -27.77483,-28.5871 -56.13365,-56.5974 -84.22312,-84.8734 2.56603,-22.43046 -26.6138,-16.323 -36.379,-5.8643 -48.37275,16.5449 -107.98476,-14.94297 -118.33552,-65.80343 -11.334153,-45.43184 15.66868,-98.68333 61.89417,-111.33718 47.29573,-14.81784 105.04173,14.15331 116.93685,63.32973 7.5202,26.71834 3.28241,57.34278 -14.10528,79.42594 5.72234,17.77399 28.81924,19.23929 37.67762,34.98674 24.12181,22.6778 47.98556,45.7367 69.51444,70.931 2.37852,9.4865 -34.50511,18.8436 -17.67094,21.197 z M 122.28895,938.02662 c -4.40083,-9.82893 10.35812,-29.93626 0.47359,-32.80765 -4.97909,9.44663 -4.69928,24.47593 -0.47359,32.80765 z m 17.07262,-51.57911 c 19.50173,-25.79651 56.63044,-33.17259 86.27852,-22.74949 -27.17584,-19.37263 -66.69595,-9.8979 -88.24483,13.66062 -7.34113,3.01046 -6.7838,19.76216 1.96631,9.08887 z"
         id="path5640"
         inkscape:connector-curvature="0"
         sodipodi:nodetypes="cccccccccccccccccc" />
      <path
         style="fill:#cccccc"
         d="m 330.40886,1091.7251 c -23.05386,-24.5123 -48.09896,-47.0962 -70.50626,-72.2254 1.7662,-18.7353 -26.50541,-24.86202 -36.02759,-10.4262 -41.82018,17.2319 -97.07125,-2.0928 -114.45065,-45.01064 -4.871,-28.97781 -5.47025,-32.76219 -4.3907,-51.21844 1.52642,-51.292 58.3732,-88.73384 102.99272,-73.92301 16.5846,4.58826 30.81695,11.41753 50.18297,25.14268 11.06796,9.53862 15.60434,24.32277 20.77186,37.45416 6.72854,26.44613 0.88026,55.7985 -15.5477,77.59958 2.32541,18.72595 28.23124,16.32405 35.32704,32.30027 25.19958,24.7182 49.73357,50.102 74.76372,74.9901 -5.91171,6.4492 -26.98232,20.2685 -22.32837,23.6736 0,0 -11.21303,-13.55 -20.78704,-18.3567 z m -63.70858,-81.9411 c 2.65718,-10.60341 -21.00979,-11.00591 -6.23834,-1.6744 1.22188,1.73 4.4456,4.4777 6.23834,1.6744 z m -53.84639,-7.3843 c 32.39304,-7.94892 57.79551,-40.18273 54.66321,-73.95704 2.65209,-50.07527 -53.71371,-92.52656 -101.05831,-75.29079 -38.33631,12.78196 -62.48014,60.11871 -45.58014,97.91682 9.88242,24.36828 33.11698,42.82985 59.14661,46.73957 -7.47691,8.47824 -24.91866,-4.19095 -33.27245,-9.7102 -5.32598,-3.32572 -19.97648,-18.17502 -18.43267,-14.30239 18.87033,25.4571 54.08107,37.41883 84.53375,28.60403 z m 17.44989,-1.122 c 8.28108,-2.37857 22.46454,-16.21852 22.62001,-17.88704 -7.06865,6.54875 -15.53243,11.38941 -22.62001,17.88704 z"
         id="path5622"
         inkscape:connector-curvature="0"
         sodipodi:nodetypes="ccccccccccccccccccccccccccc" />
      <path
         style="fill:#b3b3b3"
         d="m 345.23352,1104.2835 c -9.62901,-19.0162 -28.73284,-24.8888 -41.9015,-41.1082 -15.33059,-15.3276 -31.14033,-36.0345 -45.72823,-52.0787 -6.55908,-13.07778 -6.55908,-13.07778 -6.55908,-13.07778 -7.44716,-11.06296 13.9951,-20.59334 16.85978,-6.78313 12.01406,6.55927 25.12492,11.52471 33.07784,23.37191 23.81267,23.7946 47.5285,47.6858 71.27121,71.5502 -6.46345,9.7476 -11.62275,22.5783 -27.02002,18.1257 z m -170.54851,-90.8876 c -26.61073,-4.7912 -62.75177,-38.09784 -64.1267,-69.66666 11.98289,7.43305 18.46848,44.75116 33.79564,47.6473 15.82046,10.88616 35.4762,16.01216 54.59984,14.36636 0.95227,7.972 -23.05577,-2.2837 -24.57963,4.4585 6.42633,3.1806 24.04285,0.094 24.49288,3.1914 -8.02209,1.0423 -16.14274,0.5573 -24.18203,0 z m 71.99524,-15.84512 c -3.82477,-9.09773 9.04701,6.00612 0,0 z m 11.33639,-25.15916 c 30.62894,-43.04472 3.37469,-112.18578 -48.10036,-123.3432 -44.9126,-12.98555 -92.38466,21.48893 -97.11738,71.67024 0.48659,7.45055 -4.44235,11.89222 -3.50176,1.90278 -7.05305,-53.23247 56.94802,-101.17581 105.76159,-83.17407 17.03333,4.07213 36.18623,21.55881 42.80052,29.49434 15.06811,8.56074 18.27923,27.45381 22.14987,42.8487 3.23218,19.95499 -1.11261,41.1396 -12.38353,57.9716 4.90866,-11.24654 10.8834,-31.57995 8.22338,-38.85576 -3.70383,15.83583 -8.20276,32.36478 -19.34379,44.74426 -0.2418,-1.31579 1.0976,-2.19013 1.51146,-3.25889 z"
         id="path5612"
         inkscape:connector-curvature="0"
         sodipodi:nodetypes="ccccccccccccccccccccccccccccc" />
      <path
         style="fill:#24221c"
         d="m 268.33939,1016.0855 c -3.31689,-11.1999 0.24936,-20.47468 18.51369,-9.1429 24.25355,26.3256 54.16304,54.0983 77.88981,80.9236 -1.55675,13.4309 -12.08542,13.193 -12.08542,13.193 -28.03185,-27.9913 -60.63835,-58.0283 -84.31808,-84.9737 z"
         id="path5596"
         inkscape:connector-curvature="0"
         sodipodi:nodetypes="ccccc" />
    </g>
    <path
       sodipodi:type="star"
       style="color:#000000;text-decoration:none;text-decoration-line:none;text-decoration-style:solid;text-decoration-color:#000000;clip-rule:nonzero;display:inline;overflow:visible;visibility:visible;opacity:1;isolation:auto;mix-blend-mode:normal;color-interpolation:sRGB;color-interpolation-filters:linearRGB;solid-color:#000000;solid-opacity:1;fill:#ffe680;fill-opacity:0.65361442;fill-rule:nonzero;stroke:none;stroke-width:0.45674413;stroke-linecap:butt;stroke-linejoin:miter;stroke-miterlimit:4;stroke-dasharray:none;stroke-dashoffset:0.18269765;stroke-opacity:1;color-rendering:auto;image-rendering:auto;shape-rendering:auto;text-rendering:auto;enable-background:accumulate"
       id="path5789-3-9"
       sodipodi:sides="5"
       sodipodi:cx="210.27933"
       sodipodi:cy="869.91681"
       sodipodi:r1="19.316408"
       sodipodi:r2="7.3469186"
       sodipodi:arg1="0.79774322"
       sodipodi:arg2="1.4260617"
       inkscape:flatsided="false"
       inkscape:rounded="0"
       inkscape:randomized="0"
       d="m 223.76844,883.74315 -12.42947,-6.55624 -10.04091,9.83138 2.39444,-13.84711 -12.45301,-6.51141 13.90931,-2.00175 2.34453,-13.85565 6.20198,12.60996 13.90201,-2.05185 -10.07627,9.79513 z"
       inkscape:transform-center-x="1.0114675"
       inkscape:transform-center-y="0.46770409"
       transform="matrix(0.39710913,0,0,0.4599279,201.96406,491.19404)" />
    <path
       sodipodi:type="star"
       style="color:#000000;text-decoration:none;text-decoration-line:none;text-decoration-style:solid;text-decoration-color:#000000;clip-rule:nonzero;display:inline;overflow:visible;visibility:visible;opacity:1;isolation:auto;mix-blend-mode:normal;color-interpolation:sRGB;color-interpolation-filters:linearRGB;solid-color:#000000;solid-opacity:1;fill:#ff2a2a;fill-opacity:0.65361442;fill-rule:nonzero;stroke:none;stroke-width:0.45674413;stroke-linecap:butt;stroke-linejoin:miter;stroke-miterlimit:4;stroke-dasharray:none;stroke-dashoffset:0.18269765;stroke-opacity:1;color-rendering:auto;image-rendering:auto;shape-rendering:auto;text-rendering:auto;enable-background:accumulate"
       id="path5789-3-1"
       sodipodi:sides="5"
       sodipodi:cx="210.27933"
       sodipodi:cy="869.91681"
       sodipodi:r1="19.316408"
       sodipodi:r2="7.3469186"
       sodipodi:arg1="0.79774322"
       sodipodi:arg2="1.4260617"
       inkscape:flatsided="false"
       inkscape:rounded="0"
       inkscape:randomized="0"
       d="m 223.76844,883.74315 -12.42947,-6.55624 -10.04091,9.83138 2.39444,-13.84711 -12.45301,-6.51141 13.90931,-2.00175 2.34453,-13.85565 6.20198,12.60996 13.90201,-2.05185 -10.07627,9.79513 z"
       inkscape:transform-center-x="1.7438304"
       inkscape:transform-center-y="0.55292223"
       transform="matrix(0.6846417,0,0,0.54373219,-68.512022,549.38859)" />
  </g>
</svg>
